<svg aria-hidden="true" style="position: absolute; width: 0; height: 0; overflow: hidden;" version="1.1" xmlns="http://www.w3.org/2000/svg" xmlns:xlink="http://www.w3.org/1999/xlink">
  <defs>
    <symbol id="logo" viewBox="0 0 83 22">
      <g clip-path="url(#clip0_8515_565)">
        <path d="M1.47411 11.6465C1.4733 11.7107 1.47249 11.7749 1.47168 11.8391C1.47244 11.7761 1.4733 11.7132 1.47411 11.6502V11.6465Z"/>
        <path d="M14.8574 2.22844C15.1313 2.21389 15.4264 2.19865 15.6738 2.25384C15.8131 2.2849 15.9057 2.33594 15.9853 2.45794C16.0366 2.73789 16.0822 3.0149 16.0927 3.29973C16.1152 3.9036 16.1102 4.51198 16.1045 5.11907C16.1018 5.39441 16.0986 5.66994 16.0986 5.94427V11.1747C16.0988 11.3464 16.1032 11.6354 16.1094 11.9872C16.1306 13.2194 16.1655 15.223 16.0547 15.665C15.9752 15.9815 15.8134 16.1273 15.539 16.289C15.294 16.3201 15.0384 16.3264 14.7851 16.332C14.6526 16.3349 14.5203 16.3371 14.3906 16.3437C13.1693 16.4057 11.8796 16.5313 10.7578 17.0497C10.4575 17.1885 10.1565 17.3518 9.89255 17.5527C9.75725 17.6556 9.60543 17.7986 9.44431 17.9511C9.04261 18.3314 8.57843 18.7704 8.1406 18.7949C7.63585 18.8227 7.15742 18.3906 6.7158 17.9921C6.50573 17.8026 6.3034 17.6213 6.1113 17.4999C5.64531 17.2057 5.11828 16.9786 4.59568 16.8075C3.73364 16.5256 2.8203 16.3808 1.91599 16.3271C1.77945 16.3189 1.63846 16.3198 1.49705 16.3202C1.2347 16.3211 0.969066 16.3221 0.721655 16.2675C0.506148 16.2196 0.367093 16.1102 0.205053 15.9667C0.086388 15.6848 0.0497429 15.3361 0.0351315 15.0322C0.00898092 14.4886 0.0156123 13.9385 0.0224362 13.3906C0.0254892 13.1475 0.0281498 12.9046 0.0282956 12.663L0.0322019 8.03704L0.0282956 4.53606C0.0281921 4.38337 0.0213463 4.21743 0.0146237 4.04583C-0.00350842 3.58083 -0.0230566 3.07418 0.0781003 2.67766C0.13374 2.45978 0.259948 2.36339 0.442358 2.247C2.44915 2.11691 4.64101 2.53361 6.40427 3.51458C6.98996 3.8404 7.51748 4.23947 8.05076 4.64251C8.35053 4.41895 8.65309 4.19531 8.96189 3.9843C10.6218 2.85005 12.5984 2.29006 14.6006 2.24016C14.6823 2.23812 14.7689 2.23315 14.8574 2.22844ZM14.626 3.79973C14.3829 3.80174 14.1254 3.78635 13.8847 3.81829C12.2376 3.9672 10.1243 4.56977 9.00583 5.88177C8.95847 5.93782 8.91321 5.99593 8.86912 6.05462L8.86619 16.3554C9.04906 16.2225 9.23023 16.085 9.41599 15.956C10.9548 15.0367 12.8799 14.8789 14.6338 14.7529C14.6339 11.1041 14.6824 7.44778 14.626 3.79973ZM1.50095 3.80169C1.4632 5.3259 1.4715 6.85628 1.47947 8.38372C1.48276 9.00979 1.48621 9.63559 1.4863 10.2607C1.4864 10.72 1.48045 11.1829 1.47458 11.6464V11.6503C1.46165 12.6763 1.44891 13.7083 1.49998 14.7226C3.52641 14.897 5.56099 15.0971 7.249 16.3359C7.23902 12.9173 7.25777 9.49902 7.30564 6.08098C5.97861 4.68005 3.90215 3.85251 1.98728 3.79876C1.82524 3.79529 1.66289 3.79641 1.50095 3.80169Z"/>
        <path d="M14.8574 2.22844L14.8704 2.47246L14.8704 2.47246L14.8574 2.22844ZM15.6738 2.25384L15.6206 2.49233L15.6206 2.49234L15.6738 2.25384ZM15.9853 2.45794L16.2257 2.41393L16.2168 2.36554L16.1899 2.32434L15.9853 2.45794ZM16.0927 3.29973L15.8486 3.30878L15.8486 3.30882L16.0927 3.29973ZM16.1045 5.11907L16.3488 5.1214V5.12139L16.1045 5.11907ZM16.0986 11.1747H15.8543V11.175L16.0986 11.1747ZM16.1094 11.9872L16.3537 11.983V11.983L16.1094 11.9872ZM16.0547 15.665L16.2917 15.7245L16.2917 15.7244L16.0547 15.665ZM15.539 16.289L15.5698 16.5314L15.6197 16.5251L15.6631 16.4995L15.539 16.289ZM14.7851 16.332L14.7797 16.0877H14.7797L14.7851 16.332ZM14.3906 16.3437L14.3783 16.0996L14.3782 16.0996L14.3906 16.3437ZM10.7578 17.0497L10.8603 17.2715L10.8603 17.2715L10.7578 17.0497ZM9.89255 17.5527L10.0405 17.7471L10.0405 17.7471L9.89255 17.5527ZM9.44431 17.9511L9.27633 17.7736L9.27632 17.7737L9.44431 17.9511ZM8.1406 18.7949L8.15405 19.0388L8.15422 19.0388L8.1406 18.7949ZM6.7158 17.9921L6.87949 17.8107L6.87947 17.8107L6.7158 17.9921ZM6.1113 17.4999L6.24179 17.2933L6.24175 17.2933L6.1113 17.4999ZM4.59568 16.8075L4.67169 16.5753L4.67163 16.5753L4.59568 16.8075ZM1.91599 16.3271L1.90132 16.571L1.90149 16.571L1.91599 16.3271ZM1.49705 16.3202L1.49622 16.0759H1.49622L1.49705 16.3202ZM0.721655 16.2675L0.668615 16.506L0.66899 16.5061L0.721655 16.2675ZM0.205053 15.9667L-0.0201648 16.0615L0.00141085 16.1128L0.0430446 16.1497L0.205053 15.9667ZM0.0351315 15.0322L0.279206 15.0204L0.279206 15.0204L0.0351315 15.0322ZM0.0224362 13.3906L-0.221901 13.3875L-0.221901 13.3875L0.0224362 13.3906ZM0.0282956 12.663L-0.216061 12.6628L-0.216061 12.6629L0.0282956 12.663ZM0.0322019 8.03704L0.276559 8.03724L0.276558 8.03677L0.0322019 8.03704ZM0.0282956 4.53606L-0.216061 4.53623L-0.216061 4.53633L0.0282956 4.53606ZM0.0146237 4.04583L-0.229547 4.05535L-0.229545 4.05539L0.0146237 4.04583ZM0.0781003 2.67766L-0.158658 2.6172L-0.158672 2.61726L0.0781003 2.67766ZM0.442358 2.247L0.426551 2.00315L0.36387 2.00722L0.310919 2.04101L0.442358 2.247ZM6.40427 3.51458L6.28548 3.72811L6.28548 3.72812L6.40427 3.51458ZM8.05076 4.64251L7.90342 4.83745L8.04978 4.94806L8.19684 4.83839L8.05076 4.64251ZM8.96189 3.9843L9.09975 4.18606L9.09975 4.18606L8.96189 3.9843ZM14.6006 2.24016L14.6066 2.48444L14.6067 2.48444L14.6006 2.24016ZM14.626 3.79973L14.8703 3.79595L14.8665 3.55339L14.6239 3.55539L14.626 3.79973ZM13.8847 3.81829L13.9068 4.06186L13.9169 4.06052L13.8847 3.81829ZM9.00583 5.88177L8.81988 5.72324L8.81918 5.72407L9.00583 5.88177ZM8.86912 6.05462L8.67375 5.90785L8.62478 5.97303L8.62476 6.05455L8.86912 6.05462ZM8.86619 16.3554L8.62183 16.3553L8.62169 16.8352L9.00986 16.5531L8.86619 16.3554ZM9.41599 15.956L9.29068 15.7462L9.28348 15.7505L9.2766 15.7553L9.41599 15.956ZM14.6338 14.7529L14.6513 14.9966L14.8781 14.9803L14.8781 14.7529L14.6338 14.7529ZM1.50095 3.80169L1.49299 3.55746L1.26238 3.56498L1.25667 3.79564L1.50095 3.80169ZM1.47947 8.38372L1.23511 8.38499V8.385L1.47947 8.38372ZM1.4863 10.2607L1.24195 10.2607V10.2607L1.4863 10.2607ZM1.47458 11.6464L1.23023 11.6433V11.6464H1.47458ZM1.47458 11.6503L1.71894 11.6534V11.6503H1.47458ZM1.49998 14.7226L1.25593 14.7349L1.26665 14.9478L1.47902 14.966L1.49998 14.7226ZM7.249 16.3359L7.10443 16.5329L7.49477 16.8193L7.49335 16.3352L7.249 16.3359ZM7.30564 6.08098L7.54997 6.08441L7.55136 5.98507L7.48304 5.91294L7.30564 6.08098ZM1.98728 3.79876L1.99414 3.55449L1.99251 3.55446L1.98728 3.79876ZM14.8574 2.22844L14.8704 2.47246C15.1529 2.45744 15.4122 2.44585 15.6206 2.49233L15.6738 2.25384L15.727 2.01534C15.4405 1.95145 15.1097 1.97033 14.8444 1.98443L14.8574 2.22844ZM15.6738 2.25384L15.6206 2.49234C15.6745 2.50434 15.703 2.51673 15.7215 2.5284C15.738 2.53882 15.7571 2.55529 15.7807 2.59153L15.9853 2.45794L16.1899 2.32434C16.1339 2.23859 16.0669 2.16854 15.9824 2.11517C15.8999 2.06305 15.8125 2.0344 15.727 2.01533L15.6738 2.25384ZM15.9853 2.45794L15.745 2.50194C15.796 2.7806 15.8387 3.04281 15.8486 3.30878L16.0927 3.29973L16.3369 3.29069C16.3257 2.98698 16.2772 2.69518 16.2257 2.41393L15.9853 2.45794ZM16.0927 3.29973L15.8486 3.30882C15.8708 3.90614 15.8659 4.509 15.8601 5.11675L16.1045 5.11907L16.3488 5.12139C16.3546 4.51496 16.3597 3.90107 16.3369 3.29065L16.0927 3.29973ZM16.1045 5.11907L15.8601 5.11674C15.8575 5.3913 15.8543 5.66845 15.8543 5.94427H16.0986H16.343C16.343 5.67144 16.3462 5.39752 16.3488 5.1214L16.1045 5.11907ZM16.0986 5.94427H15.8543V11.1747H16.0986H16.343V5.94427H16.0986ZM16.0986 11.1747L15.8543 11.175C15.8544 11.3491 15.8589 11.6402 15.865 11.9915L16.1094 11.9872L16.3537 11.983C16.3476 11.6305 16.3432 11.3438 16.343 11.1745L16.0986 11.1747ZM16.1094 11.9872L15.865 11.9915C15.8757 12.6081 15.8897 13.4144 15.8872 14.1216C15.886 14.4753 15.8806 14.8019 15.8689 15.0663C15.8567 15.3389 15.8384 15.5227 15.8177 15.6055L16.0547 15.665L16.2917 15.7244C16.3263 15.5863 16.3453 15.3538 16.3571 15.088C16.3693 14.8139 16.3747 14.4797 16.3759 14.1233C16.3784 13.4101 16.3643 12.5986 16.3537 11.983L16.1094 11.9872ZM16.0547 15.665L15.8177 15.6054C15.786 15.7315 15.7419 15.8106 15.6865 15.8736C15.6274 15.9407 15.5448 16.0019 15.415 16.0785L15.539 16.289L15.6631 16.4995C15.8076 16.4144 15.943 16.3219 16.0534 16.1965C16.1673 16.067 16.2438 15.9149 16.2917 15.7245L16.0547 15.665ZM15.539 16.289L15.5083 16.0466C15.2779 16.0758 15.0348 16.082 14.7797 16.0877L14.7851 16.332L14.7905 16.5763C15.0419 16.5707 15.3101 16.5644 15.5698 16.5314L15.539 16.289ZM14.7851 16.332L14.7797 16.0877C14.6491 16.0905 14.5124 16.0929 14.3783 16.0996L14.3906 16.3437L14.4029 16.5877C14.5282 16.5814 14.656 16.5792 14.7905 16.5763L14.7851 16.332ZM14.3906 16.3437L14.3782 16.0996C13.1551 16.1618 11.8235 16.288 10.6553 16.8279L10.7578 17.0497L10.8603 17.2715C11.9356 16.7745 13.1835 16.6497 14.403 16.5877L14.3906 16.3437ZM10.7578 17.0497L10.6553 16.8279C10.3463 16.9707 10.0279 17.1426 9.74457 17.3582L9.89255 17.5527L10.0405 17.7471C10.285 17.5611 10.5687 17.4063 10.8603 17.2715L10.7578 17.0497ZM9.89255 17.5527L9.7446 17.3582C9.59671 17.4707 9.43476 17.6237 9.27633 17.7736L9.44431 17.9511L9.61229 18.1286C9.77611 17.9735 9.91779 17.8405 10.0405 17.7471L9.89255 17.5527ZM9.44431 17.9511L9.27632 17.7737C9.07302 17.9661 8.86825 18.1594 8.6625 18.3086C8.45302 18.4606 8.27461 18.5426 8.12698 18.5509L8.1406 18.7949L8.15422 19.0388C8.44442 19.0226 8.71701 18.8729 8.94951 18.7042C9.18573 18.5328 9.4139 18.3164 9.61231 18.1285L9.44431 17.9511ZM8.1406 18.7949L8.12715 18.5509C7.9493 18.5607 7.75616 18.4902 7.53752 18.3483C7.31893 18.2065 7.1036 18.0129 6.87949 17.8107L6.7158 17.9921L6.5521 18.1735C6.76962 18.3698 7.01431 18.5914 7.27152 18.7583C7.52869 18.9252 7.82714 19.0569 8.15405 19.0388L8.1406 18.7949ZM6.7158 17.9921L6.87947 17.8107C6.6736 17.625 6.45506 17.428 6.24179 17.2933L6.1113 17.4999L5.98081 17.7065C6.15174 17.8145 6.33786 17.9803 6.55212 18.1736L6.7158 17.9921ZM6.1113 17.4999L6.24175 17.2933C5.7544 16.9856 5.20784 16.7508 4.67169 16.5753L4.59568 16.8075L4.51967 17.0398C5.02871 17.2064 5.53622 17.4258 5.98085 17.7066L6.1113 17.4999ZM4.59568 16.8075L4.67163 16.5753C3.78516 16.2854 2.85034 16.1378 1.93049 16.0832L1.91599 16.3271L1.90149 16.571C2.79026 16.6238 3.68211 16.7659 4.51973 17.0398L4.59568 16.8075ZM1.91599 16.3271L1.93067 16.0832C1.7848 16.0744 1.63539 16.0754 1.49622 16.0759L1.49705 16.3202L1.49787 16.5646C1.64152 16.5641 1.7741 16.5633 1.90132 16.571L1.91599 16.3271ZM1.49705 16.3202L1.49622 16.0759C1.22825 16.0768 0.990585 16.0766 0.77432 16.0289L0.721655 16.2675L0.66899 16.5061C0.947547 16.5676 1.24115 16.5655 1.49787 16.5646L1.49705 16.3202ZM0.721655 16.2675L0.774695 16.029C0.623413 15.9953 0.523713 15.9225 0.367062 15.7838L0.205053 15.9667L0.0430446 16.1497C0.210473 16.2979 0.388884 16.4438 0.668615 16.506L0.721655 16.2675ZM0.205053 15.9667L0.430272 15.8719C0.3294 15.6323 0.293635 15.3206 0.279206 15.0204L0.0351315 15.0322L-0.208943 15.0439C-0.19415 15.3516 -0.156624 15.7373 -0.0201648 16.0615L0.205053 15.9667ZM0.0351315 15.0322L0.279206 15.0204C0.253469 14.4855 0.259935 13.9427 0.266774 13.3936L0.0224362 13.3906L-0.221901 13.3875C-0.22871 13.9343 -0.235507 14.4917 -0.208943 15.0439L0.0351315 15.0322ZM0.0224362 13.3906L0.266773 13.3936C0.269828 13.1504 0.272505 12.9063 0.272652 12.6632L0.0282956 12.663L-0.216061 12.6629C-0.216206 12.9029 -0.218849 13.1445 -0.221901 13.3875L0.0224362 13.3906ZM0.0282956 12.663L0.272652 12.6632L0.276558 8.03724L0.0322019 8.03704L-0.212154 8.03683L-0.216061 12.6628L0.0282956 12.663ZM0.0322019 8.03704L0.276558 8.03677L0.272652 4.53579L0.0282956 4.53606L-0.216061 4.53633L-0.212154 8.03731L0.0322019 8.03704ZM0.0282956 4.53606L0.272652 4.5359C0.272545 4.37746 0.265451 4.20621 0.258793 4.03626L0.0146237 4.04583L-0.229545 4.05539C-0.222758 4.22864 -0.21616 4.38927 -0.216061 4.53623L0.0282956 4.53606ZM0.0146237 4.04583L0.258795 4.03631C0.240234 3.56032 0.224325 3.093 0.314873 2.73807L0.0781003 2.67766L-0.158672 2.61726C-0.270438 3.05536 -0.24725 3.60135 -0.229547 4.05535L0.0146237 4.04583ZM0.0781003 2.67766L0.314859 2.73812C0.346166 2.61553 0.401812 2.56273 0.573797 2.45299L0.442358 2.247L0.310919 2.04101C0.118083 2.16405 -0.0786855 2.30403 -0.158658 2.6172L0.0781003 2.67766ZM0.442358 2.247L0.458166 2.49084C2.42432 2.36339 4.56835 2.77282 6.28548 3.72811L6.40427 3.51458L6.52307 3.30104C4.71366 2.29441 2.47398 1.87043 0.426551 2.00315L0.442358 2.247ZM6.40427 3.51458L6.28548 3.72812C6.85376 4.04425 7.36785 4.43268 7.90342 4.83745L8.05076 4.64251L8.19809 4.44756C7.6671 4.04626 7.12615 3.63654 6.52306 3.30104L6.40427 3.51458ZM8.05076 4.64251L8.19684 4.83839C8.4965 4.61492 8.79551 4.39395 9.09975 4.18606L8.96189 3.9843L8.82403 3.78255C8.51068 3.99667 8.20457 4.22298 7.90468 4.44662L8.05076 4.64251ZM8.96189 3.9843L9.09975 4.18606C10.7158 3.08179 12.6451 2.53333 14.6066 2.48444L14.6006 2.24016L14.5945 1.99588C12.5516 2.04679 10.5278 2.6183 8.82403 3.78255L8.96189 3.9843ZM14.6006 2.24016L14.6067 2.48444C14.6927 2.48229 14.7838 2.47706 14.8704 2.47246L14.8574 2.22844L14.8444 1.98443C14.7541 1.98923 14.6718 1.99395 14.5945 1.99588L14.6006 2.24016ZM14.626 3.79973L14.6239 3.55539C14.4044 3.5572 14.1132 3.54147 13.8526 3.57606L13.8847 3.81829L13.9169 4.06052C14.1376 4.03123 14.3613 4.04628 14.628 4.04408L14.626 3.79973ZM13.8847 3.81829L13.8627 3.57492C13.0209 3.65103 12.0583 3.84302 11.16 4.18555C10.2636 4.52734 9.4149 5.02526 8.81988 5.72324L9.00583 5.88177L9.19179 6.04029C9.71523 5.42628 10.4825 4.96691 11.3341 4.64219C12.1838 4.31821 13.1015 4.13445 13.9067 4.06165L13.8847 3.81829ZM9.00583 5.88177L8.81918 5.72407C8.76776 5.78493 8.71945 5.84701 8.67375 5.90785L8.86912 6.05462L9.06448 6.20139C9.10697 6.14484 9.14919 6.09072 9.19249 6.03946L9.00583 5.88177ZM8.86912 6.05462L8.62476 6.05455L8.62183 16.3553L8.86619 16.3554L9.11054 16.3555L9.11347 6.05469L8.86912 6.05462ZM8.86619 16.3554L9.00986 16.5531C9.19847 16.416 9.3722 16.2839 9.55539 16.1567L9.41599 15.956L9.2766 15.7553C9.08827 15.8861 8.89965 16.029 8.72251 16.1577L8.86619 16.3554ZM9.41599 15.956L9.54131 16.1658C11.0221 15.2812 12.887 15.1234 14.6513 14.9966L14.6338 14.7529L14.6162 14.5091C12.8728 14.6345 10.8875 14.7923 9.29068 15.7462L9.41599 15.956ZM14.6338 14.7529L14.8781 14.7529C14.8782 11.1086 14.9268 7.44636 14.8703 3.79595L14.626 3.79973L14.3816 3.80352C14.4381 7.4492 14.3895 11.0996 14.3894 14.7529L14.6338 14.7529ZM1.50095 3.80169L1.25667 3.79564C1.21881 5.32414 1.22715 6.85823 1.23511 8.38499L1.47947 8.38372L1.72382 8.38244C1.71585 6.85434 1.70759 5.32766 1.74523 3.80774L1.50095 3.80169ZM1.47947 8.38372L1.23511 8.385C1.23841 9.01124 1.24185 9.63638 1.24195 10.2607L1.4863 10.2607L1.73066 10.2606C1.73056 9.63481 1.72711 9.00834 1.72382 8.38243L1.47947 8.38372ZM1.4863 10.2607L1.24195 10.2607C1.24204 10.7182 1.23612 11.1795 1.23025 11.6433L1.47458 11.6464L1.71892 11.6495C1.72479 11.1863 1.73076 10.7218 1.73066 10.2606L1.4863 10.2607ZM1.47458 11.6464H1.23023V11.6503H1.47458H1.71894V11.6464H1.47458ZM1.47458 11.6503L1.23025 11.6472C1.21733 12.672 1.20441 13.7116 1.25593 14.7349L1.49998 14.7226L1.74402 14.7103C1.69341 13.7049 1.70597 12.6807 1.71892 11.6534L1.47458 11.6503ZM1.49998 14.7226L1.47902 14.966C3.5149 15.1413 5.47983 15.3407 7.10443 16.5329L7.249 16.3359L7.39357 16.1389C5.64215 14.8536 3.53792 14.6528 1.52094 14.4791L1.49998 14.7226ZM7.249 16.3359L7.49335 16.3352C7.48338 12.918 7.50212 9.50105 7.54997 6.08441L7.30564 6.08098L7.06131 6.07756C7.01342 9.49699 6.99466 12.9167 7.00464 16.3366L7.249 16.3359ZM7.30564 6.08098L7.48304 5.91294C6.10627 4.45949 3.96567 3.60984 1.99414 3.5545L1.98728 3.79876L1.98042 4.04302C3.83862 4.09518 5.85096 4.90061 7.12824 6.24903L7.30564 6.08098ZM1.98728 3.79876L1.99251 3.55446C1.82587 3.55089 1.65911 3.55205 1.49299 3.55746L1.50095 3.80169L1.50891 4.04591C1.66667 4.04077 1.82462 4.03969 1.98205 4.04306L1.98728 3.79876Z"/>
        <path d="M22.3605 3.35273C24.3179 3.31872 27.6145 3.26112 28.7003 3.67695C29.5294 3.99463 30.2347 4.61962 30.5959 5.43672C30.9518 6.24226 30.9771 7.30801 30.6544 8.12812C30.3097 9.00379 29.6773 9.37392 28.8595 9.72676C28.9226 9.74975 28.9869 9.77202 29.0509 9.79414C29.2261 9.85466 29.4026 9.91592 29.5675 9.99726C30.3227 10.3766 30.8999 11.0363 31.175 11.8352C31.5073 12.815 31.3796 13.9125 30.9298 14.8303C30.5944 15.4082 30.1242 15.8555 29.5421 16.1809C29.03 16.4672 28.5235 16.5817 27.9455 16.6584C27.0668 16.7752 21.9695 16.8519 21.3293 16.634C21.243 16.6047 21.1569 16.5718 21.1173 16.4865C21.023 16.2822 21.0101 15.9688 21.0002 15.7277L20.9972 15.6613C20.9358 14.2911 20.956 12.9025 20.9757 11.5197C20.9845 10.9047 20.9927 10.2906 20.9943 9.67988C20.9958 9.09144 20.9883 8.49888 20.9806 7.90547C20.9657 6.7485 20.9512 5.58713 21.0041 4.44258C21.0156 4.1945 21.0367 3.91783 21.1261 3.68476C21.1945 3.50681 21.2818 3.44542 21.4494 3.3664C21.695 3.36472 22.0058 3.3589 22.3605 3.35273ZM27.2541 10.7902C26.5406 10.6202 24.2885 10.738 23.4308 10.7385L23.4318 14.6486C24.4382 14.6506 26.6291 14.7776 27.4914 14.5568C27.8099 14.4753 28.0626 14.3474 28.3048 14.1252C28.6928 13.6678 28.8941 13.2063 28.8361 12.593C28.7844 12.0478 28.5514 11.5839 28.1271 11.2336C27.8737 11.0215 27.5748 10.8698 27.2541 10.7902ZM24.1418 5.33613C23.8702 5.34489 23.6263 5.35243 23.4298 5.35273L23.4318 8.8332C23.6603 8.83384 23.9386 8.84105 24.2423 8.84883C25.2463 8.87453 26.5269 8.90752 27.1955 8.73652C27.5069 8.65681 27.7648 8.53087 28.0138 8.32832C28.3406 7.93251 28.5187 7.48049 28.4767 6.96015C28.4399 6.50267 28.2216 6.055 27.8566 5.77168C27.1693 5.23849 25.3674 5.29658 24.1418 5.33613Z" />
        <path d="M42.5544 11.1384C42.178 8.31327 39.5822 6.32861 36.7575 6.70624C33.9349 7.08362 31.9522 9.67688 32.3279 12.4994C32.7037 15.3222 35.2959 17.3064 38.1189 16.9326C40.944 16.5577 42.9302 13.9631 42.5544 11.1384ZM37.0878 8.89152C37.6611 8.86298 38.1668 8.8728 38.6753 9.18265C39.246 9.53051 39.601 10.1248 39.7556 10.7631C39.9747 11.6681 39.9234 12.9144 39.4144 13.7193C39.0497 14.2959 38.5415 14.5511 37.8981 14.6928C37.2807 14.7548 36.6681 14.6967 36.1391 14.3419C35.5813 13.9675 35.2565 13.3566 35.1303 12.7096C34.951 11.7908 35.0073 10.5969 35.5624 9.81025C35.9434 9.27037 36.4512 9.00422 37.0878 8.89152Z"/>
        <path d="M53.6245 11.107C53.2345 8.28268 50.6248 6.31224 47.8015 6.71029C44.9894 7.10678 43.0287 9.70375 43.4172 12.5169C43.8058 15.3295 46.3974 17.298 49.2114 16.9173C52.0367 16.5351 54.0145 13.9313 53.6245 11.107ZM48.1177 8.892C48.6753 8.84616 49.2148 8.86346 49.7162 9.14437C50.3115 9.47781 50.6751 10.0632 50.8447 10.7095C51.0881 11.6382 51.0401 12.8361 50.5314 13.6732C50.1712 14.2665 49.6576 14.5426 49.0008 14.6902C48.386 14.7699 47.7799 14.7015 47.2511 14.354C46.6867 13.9831 46.3592 13.379 46.2219 12.7305C46.0284 11.8142 46.091 10.6337 46.6256 9.83721C46.9882 9.29665 47.4931 9.02073 48.1177 8.892Z"/>
        <path d="M55.6811 2.93559C55.7197 2.93197 55.7583 2.92919 55.7969 2.92782C56.1801 2.91438 57.0334 2.84014 57.2934 3.19094C57.4043 3.34039 57.4204 3.65263 57.4341 3.83688C57.4923 4.6152 57.4454 5.42929 57.4454 6.21094L57.4463 10.8136C57.9908 10.1665 58.6173 9.57397 59.1915 8.95145C59.7584 8.3366 60.3034 7.62953 60.9313 7.08188C61.0809 6.95144 61.1943 6.88234 61.3878 6.82955C61.789 6.72033 63.2425 6.6394 63.5484 6.85712C63.6266 6.91269 63.6931 7.0204 63.6872 7.11878C63.6598 7.55681 60.7657 10.4104 60.2613 10.9098C61.1894 12.2587 62.1253 13.6017 63.0695 14.9393C63.3045 15.2804 63.9726 16.0125 63.8866 16.4352C63.868 16.5271 63.7952 16.6078 63.7141 16.6522C63.2801 16.8912 61.6131 16.7339 61.0926 16.5643C60.7207 16.1904 60.4177 15.6499 60.1186 15.2154L58.3075 12.5749L57.4419 13.327C57.4385 14.0195 57.6457 16.057 57.2005 16.5213C57.0011 16.7295 56.7406 16.7456 56.4694 16.748C56.055 16.7524 55.2535 16.8213 54.9505 16.5252C54.8728 15.7276 54.8987 14.9202 54.8982 14.1197L54.8967 10.7012L54.8972 6.01702C54.8972 5.18455 54.8674 4.33966 54.906 3.50841C54.9114 3.39659 54.9143 3.30007 54.9808 3.20443C55.1401 2.97391 55.4289 2.96985 55.6811 2.93559Z"/>
        <path d="M73.289 6.73974C73.8354 6.72786 74.9233 6.607 75.4149 6.81065C75.5992 6.88694 75.6827 7.07504 75.7653 7.24727C76.1153 7.97677 76.3445 8.81726 76.626 9.57906C77.1161 10.9046 77.6439 12.2156 78.141 13.5381C78.4298 12.7918 80.4247 7.23099 80.7517 6.9536C80.912 6.81784 81.2159 6.78866 81.4158 6.78279C81.8366 6.77048 82.6225 6.67752 82.9411 6.97149C83.0217 7.16096 83.011 7.26457 82.9646 7.46768C82.8013 8.17694 82.4539 8.91388 82.1992 9.59763L80.5625 13.9965L79.4561 16.9952C79.2337 17.6003 79.0378 18.2478 78.7494 18.8235C78.5886 19.1441 78.3931 19.4447 78.1478 19.7071C77.5599 20.337 76.7907 20.6078 75.9437 20.6371C75.5806 20.6498 74.958 20.7173 74.6779 20.4578C74.4991 20.0961 74.4839 19.2526 74.5993 18.8626C74.7117 18.4829 75.543 18.5552 75.8782 18.3666C76.4178 18.0631 76.5649 17.4654 76.7041 16.9097C76.2707 15.5995 73.008 7.58731 73.0398 7.13423C73.0535 6.93747 73.1463 6.85312 73.289 6.73974Z"/>
        <path d="M67.9284 6.701C68.2021 6.65926 68.5026 6.67065 68.7807 6.67348C69.8867 6.68453 71.1241 6.91765 71.9207 7.74958C72.2867 8.13205 72.5536 8.70985 72.5135 9.24871C72.5067 9.34054 72.4813 9.47239 72.4031 9.52771C72.0057 9.80848 70.9213 9.7534 70.4492 9.68992C70.0304 9.63347 70.0626 9.35344 69.8046 9.04692C69.5201 8.70961 69.1042 8.54383 68.6712 8.51241C68.1894 8.47742 67.58 8.6342 67.2212 8.97248C67.0629 9.12188 66.8958 9.50679 66.9217 9.72222C67.0331 10.6616 69.68 10.7824 70.4419 10.9743C71.0879 11.1369 71.7531 11.3789 72.2692 11.8138C72.7588 12.2263 72.9802 12.7883 73.0301 13.4168C73.0912 14.1914 72.8654 14.9333 72.3513 15.5197C71.4579 16.5387 70.1564 16.8383 68.8614 16.9331C67.8659 16.9668 66.7946 16.8304 65.8993 16.3706C65.2498 16.0368 64.6633 15.5153 64.4468 14.7959C64.3579 14.5022 64.2987 14.1582 64.4551 13.8796C64.9077 13.5248 66.1441 13.6636 66.6934 13.6836C66.8787 13.9656 66.992 14.2965 67.2452 14.5301C67.6718 14.9235 68.3013 15.0422 68.8648 15.0144C69.3256 14.9914 69.8163 14.8604 70.1252 14.4944C70.2957 14.2926 70.3944 14.0335 70.369 13.7672C70.2669 12.7018 67.6425 12.7057 66.8303 12.518C66.2438 12.3832 65.6456 12.1452 65.1706 11.7689C64.6702 11.3715 64.3505 10.8372 64.2899 10.1968C64.2225 9.41536 64.4634 8.6386 64.9614 8.03269C65.7136 7.12114 66.7951 6.81174 67.9284 6.701Z" />
      </g>
      <defs>
        <clipPath id="clip0_8515_565">
          <rect width="83" height="21" transform="translate(0 0.77832)"/>
        </clipPath>
      </defs>
    </symbol>
  </defs>
</svg>
