<svg version="1.1" xmlns="http://www.w3.org/2000/svg" width="3863" height="1024" viewBox="0 0 3863 1024">
  <g id="logo">
  </g>
  <path d="M68.613 526.266c-0.038 2.988-0.075 5.976-0.113 8.969 0.035-2.932 0.075-5.865 0.113-8.797v-0.172z"></path>
  <path
    d="M691.544 87.883c12.749-0.678 26.484-1.387 38 1.182 6.484 1.446 10.794 3.822 14.499 9.5 2.388 13.031 4.51 25.924 4.999 39.182 1.047 28.107 0.815 56.425 0.549 84.682-0.126 12.816-0.275 25.64-0.275 38.409v243.455c0.009 7.992 0.214 21.439 0.503 37.818 0.987 57.353 2.611 150.612-2.546 171.18-3.7 14.732-11.231 21.523-24.003 29.049-11.404 1.448-23.301 1.736-35.091 1.997-6.167 0.14-12.325 0.242-18.362 0.545-56.846 2.89-116.876 8.732-169.090 32.866-13.978 6.461-27.988 14.061-40.273 23.408-6.298 4.794-13.364 11.45-20.864 18.548-18.697 17.701-40.303 38.135-60.682 39.27-23.494 1.294-45.763-18.818-66.318-37.362-9.778-8.82-19.195-17.264-28.137-22.91-21.69-13.694-46.221-24.264-70.545-32.228-40.124-13.121-82.636-19.861-124.727-22.365-6.355-0.382-12.918-0.34-19.5-0.317-12.211 0.042-24.575 0.088-36.091-2.453-10.031-2.23-16.503-7.322-24.045-14.001-5.523-13.121-7.229-29.352-7.909-43.501-1.217-25.297-0.909-50.902-0.591-76.409 0.142-11.311 0.266-22.616 0.273-33.862l0.182-215.319-0.182-162.955c-0.005-7.107-0.323-14.831-0.636-22.818-0.844-21.644-1.754-45.226 2.955-63.682 2.59-10.141 8.464-14.628 16.955-20.045 93.407-6.056 195.428 13.34 277.5 59 27.261 15.165 51.815 33.74 76.637 52.5 13.953-10.406 28.036-20.815 42.409-30.637 77.261-52.795 169.263-78.859 262.456-81.182 3.803-0.095 7.834-0.327 11.953-0.546zM680.774 161.019c-11.315 0.094-23.301-0.623-34.504 0.864-76.665 6.931-175.030 34.978-227.089 96.045-2.204 2.609-4.311 5.314-6.363 8.045l-0.136 479.456c8.512-6.191 16.944-12.586 25.591-18.59 71.625-42.789 161.229-50.134 242.865-56.003 0.005-169.83 2.262-340.017-0.363-509.817zM69.862 161.11c-1.757 70.946-1.371 142.178-1 213.273 0.153 29.141 0.314 58.269 0.318 87.363 0.005 21.381-0.272 42.922-0.546 64.501v0.182c-0.602 47.756-1.195 95.786 1.182 143.002 94.321 8.118 189.022 17.431 267.591 75.087-0.465-159.116 0.408-318.222 2.636-477.317-61.767-65.207-158.417-103.725-247.545-106.227-7.542-0.162-15.099-0.109-22.636 0.136z">
  </path>
  <path
    d="M691.544 87.883v0zM729.544 89.065v0zM744.043 98.565l11.19-2.048-0.414-2.252-1.252-1.918-9.523 6.218zM749.042 137.747v0zM749.591 222.429v0zM749.317 504.292h-11.371v0.014l11.371-0.014zM749.819 542.11v0zM747.273 713.29v0zM723.27 742.339l1.434 11.283 2.323-0.298 2.020-1.187-5.776-9.798zM688.179 744.336v0zM669.817 744.881l-0.573-11.357h-0.005l0.577 11.357zM500.727 777.747v0zM460.453 801.154v0zM439.59 819.703v0zM378.908 858.973l0.626 11.357h0.008l-0.634-11.357zM312.59 821.611v0zM284.453 798.701v0zM213.908 766.473l3.538-10.808h-0.003l-3.535 10.808zM89.181 744.108l-0.683 11.357h0.008l0.675-11.357zM69.681 743.792v0zM33.59 741.339l-2.469 11.101 0.017 0.005 2.451-11.106zM9.544 727.338l-10.483 4.413 1.004 2.388 1.938 1.713 7.541-8.513zM1.635 683.837v0zM1.044 607.427v0zM1.317 573.566v0zM1.499 358.247l11.374 0.009v-0.022l-11.374 0.013zM1.317 195.292v0zM0.681 172.474v0zM3.635 108.792v0zM20.59 88.747l-0.736-11.35-2.918 0.189-2.465 1.572 6.118 9.588zM298.090 147.747v0zM374.726 200.247l-6.858 9.074 6.812 5.148 6.845-5.105-6.799-9.117zM417.135 169.61v0zM679.592 88.428l0.279 11.37h0.005l-0.284-11.37zM680.774 161.019l11.371-0.176-0.177-11.291-11.292 0.093 0.098 11.373zM646.27 161.883l1.029 11.337 0.47-0.062-1.499-11.275zM419.18 257.928l-8.655-7.378-0.033 0.038 8.688 7.34zM412.817 265.974l-9.094-6.831-2.279 3.034-0.001 3.795 11.374 0.003zM412.681 745.43l-11.374-0.005-0.007 22.337 18.068-13.135-6.687-9.197zM438.272 726.84l-5.833-9.765-0.335 0.2-0.32 0.223 6.488 9.342zM681.137 670.836l0.815 11.348 10.557-0.763v-10.584h-11.371zM69.862 161.11l-0.371-11.367-10.734 0.35-0.266 10.736 11.37 0.282zM68.863 374.383v0zM69.181 461.747v0zM68.635 526.248l-11.373-0.144v0.144h11.373zM68.635 526.429l11.374 0.144v-0.144h-11.374zM69.817 669.431l-11.359 0.568 0.499 9.91 9.885 0.852 0.976-11.329zM337.408 744.518l-6.729 9.169 18.169 13.335-0.066-22.537-11.373 0.033zM340.044 267.201l11.372 0.159 0.065-4.623-3.18-3.357-8.257 7.821zM92.499 160.974l0.319-11.37-0.076-0.002-0.243 11.372zM691.544 87.883l0.605 11.358c13.149-0.699 25.218-1.238 34.918 0.925l4.952-22.202c-13.335-2.974-28.733-2.095-41.081-1.439l0.605 11.358zM729.544 89.065l-2.476 11.102c2.509 0.558 3.835 1.135 4.696 1.678 0.768 0.485 1.657 1.252 2.755 2.938l19.046-12.436c-2.607-3.991-5.725-7.252-9.658-9.736-3.84-2.426-7.908-3.76-11.888-4.647l-2.476 11.101zM744.043 98.565l-11.185 2.048c2.374 12.97 4.361 25.175 4.822 37.555l22.728-0.842c-0.521-14.136-2.779-27.718-5.176-40.809l-11.19 2.048zM749.042 137.747l-11.362 0.423c1.033 27.803 0.805 55.862 0.535 84.15l22.747 0.216c0.27-28.227 0.507-56.8-0.554-85.213l-11.366 0.423zM749.591 222.429l-11.376-0.108c-0.121 12.78-0.27 25.679-0.27 38.517h22.747c0-12.699 0.149-25.448 0.27-38.3l-11.371-0.108zM749.317 260.837h-11.371v243.455h22.747v-243.455h-11.376zM749.317 504.292l-11.371 0.014c0.005 8.099 0.214 21.648 0.498 38l22.747-0.391c-0.284-16.407-0.489-29.757-0.498-37.637l-11.376 0.014zM749.819 542.11l-11.376 0.195c0.498 28.7 1.15 66.234 1.033 99.151-0.056 16.463-0.307 31.665-0.852 43.971-0.568 12.688-1.42 21.243-2.383 25.097l22.063 5.534c1.61-6.433 2.495-17.25 3.044-29.622 0.568-12.758 0.819-28.314 0.875-44.902 0.116-33.196-0.54-70.973-1.033-99.621l-11.371 0.195zM747.273 713.29l-11.031-2.769c-1.475 5.869-3.528 9.551-6.107 12.483-2.751 3.123-6.595 5.972-12.637 9.533l11.548 19.6c6.726-3.961 13.028-8.271 18.167-14.108 5.302-6.023 8.862-13.103 11.092-21.965l-11.031-2.774zM723.27 742.339l-1.429-11.287c-10.724 1.364-22.039 1.652-33.913 1.913l0.503 22.742c11.702-0.256 24.185-0.554 36.273-2.085l-1.434-11.283zM688.179 744.336l-0.251-11.371c-6.079 0.135-12.442 0.242-18.683 0.559l0.573 11.357 0.573 11.362c5.832-0.293 11.781-0.396 18.041-0.535l-0.251-11.371zM669.817 744.881l-0.577-11.357c-56.93 2.895-118.91 8.769-173.284 33.899l9.542 20.648c50.050-23.133 108.134-28.942 164.897-31.828l-0.577-11.362zM500.727 777.747l-4.771-10.324c-14.383 6.647-29.203 14.648-42.39 24.683l13.774 18.102c11.38-8.662 24.585-15.863 38.158-22.137l-4.771-10.324zM460.453 801.154l-6.886-9.048c-6.884 5.236-14.422 12.353-21.796 19.335l15.637 16.519c7.625-7.215 14.22-13.405 19.931-17.752l-6.886-9.053zM439.59 819.703l-7.819-8.262c-9.463 8.96-18.994 17.953-28.571 24.902-9.75 7.075-18.055 10.892-24.926 11.273l1.268 22.714c13.507-0.754 26.195-7.722 37.017-15.574 10.995-7.978 21.615-18.050 30.85-26.796l-7.82-8.257zM378.908 858.973l-0.626-11.357c-8.278 0.456-17.268-2.821-27.445-9.425-10.174-6.6-20.197-15.611-30.628-25.023l-15.239 16.887c10.125 9.137 21.514 19.451 33.486 27.22 11.97 7.764 25.862 13.894 41.078 13.056l-0.626-11.357zM312.59 821.611l7.618-8.448c-9.582-8.643-19.754-17.808-29.681-24.078l-12.147 19.233c7.956 5.027 16.619 12.739 26.592 21.737l7.619-8.443zM284.453 798.701l6.072-9.616c-22.684-14.322-48.124-25.251-73.079-33.42l-7.076 21.616c23.693 7.759 47.316 17.971 68.011 31.037l6.072-9.616zM213.908 766.473l3.535-10.808c-41.261-13.494-84.773-20.364-127.588-22.91l-0.675 11.352-0.675 11.357c41.368 2.458 82.88 9.067 121.867 21.821l3.535-10.813zM89.181 744.108l0.683-11.352c-6.79-0.405-13.744-0.358-20.222-0.335l0.039 11.371 0.038 11.376c6.686-0.023 12.857-0.061 18.779 0.298l0.683-11.357zM69.681 743.792l-0.039-11.371c-12.473 0.042-23.535 0.033-33.601-2.188l-4.903 22.211c12.966 2.863 26.631 2.76 38.581 2.723l-0.038-11.376zM33.59 741.339l2.469-11.106c-7.041-1.564-11.682-4.952-18.973-11.408l-15.082 17.026c7.793 6.903 16.097 13.694 29.117 16.589l2.469-11.101zM9.544 727.338l10.483-4.413c-4.695-11.152-6.36-25.665-7.031-39.633l-22.721 1.094c0.689 14.322 2.435 32.275 8.787 47.365l10.483-4.413zM1.635 683.837l11.361-0.545c-1.198-24.902-0.897-50.162-0.579-75.72l-22.746-0.284c-0.317 25.446-0.633 51.395 0.603 77.098l11.361-0.549zM1.044 607.427l11.373 0.144c0.142-11.32 0.267-22.682 0.274-34.001l-22.747-0.014c-0.007 11.176-0.13 22.421-0.272 33.731l11.373 0.14zM1.317 573.566l11.374 0.009 0.182-215.319-22.747-0.019-0.182 215.319 11.374 0.009zM1.499 358.247l11.374-0.013-0.182-162.954-22.747 0.025 0.182 162.955 11.374-0.013zM1.317 195.292l11.374-0.008c-0.005-7.374-0.335-15.345-0.645-23.256l-22.73 0.89c0.316 8.064 0.623 15.541 0.628 22.381l11.374-0.008zM0.681 172.474l11.365-0.444c-0.864-22.155-1.604-43.907 2.61-60.427l-22.041-5.623c-5.202 20.391-4.123 45.805-3.299 66.937l11.365-0.443zM3.635 108.792l11.020 2.814c1.457-5.706 4.047-8.164 12.052-13.272l-12.236-19.176c-8.976 5.727-18.134 12.243-21.857 26.819l11.020 2.814zM20.59 88.747l0.736 11.35c91.516-5.933 191.31 13.125 271.235 57.589l11.059-19.878c-84.22-46.854-188.467-66.588-283.765-60.411l0.736 11.35zM298.090 147.747l-5.529 9.939c26.451 14.715 50.379 32.795 75.308 51.635l13.716-18.148c-24.715-18.679-49.894-37.749-77.965-53.365l-5.529 9.939zM374.726 200.247l6.799 9.117c13.948-10.402 27.865-20.687 42.026-30.363l-12.834-18.782c-14.585 9.966-28.833 20.5-42.792 30.909l6.799 9.118zM417.135 169.61l6.417 9.391c75.22-51.398 165.020-76.927 256.319-79.202l-0.279-11.37-0.284-11.37c-95.088 2.37-189.286 28.97-268.589 83.161l6.417 9.391zM679.592 88.428l0.284 11.37c4.003-0.1 8.243-0.344 12.274-0.558l-1.21-22.716c-4.203 0.223-8.034 0.443-11.632 0.533l0.284 11.37zM680.774 161.019l-0.098-11.373c-10.217 0.084-23.771-0.647-35.901 0.962l1.494 11.275 1.499 11.275c10.273-1.364 20.685-0.663 33.098-0.765l-0.093-11.373zM646.27 161.883l-1.024-11.328c-39.182 3.543-83.987 12.479-125.798 28.422-41.723 15.909-81.226 39.085-108.922 71.573l17.311 14.757c24.364-28.58 60.077-49.961 99.715-65.075 39.55-15.080 82.264-23.633 119.743-27.021l-1.024-11.327zM419.18 257.928l-8.688-7.34c-2.393 2.833-4.642 5.723-6.769 8.554l18.187 13.663c1.978-2.632 3.943-5.151 5.958-7.537l-8.688-7.34zM412.817 265.974l-11.374-0.003-0.136 479.454 22.747 0.005 0.136-479.453-11.373-0.003zM412.681 745.43l6.687 9.197c8.779-6.381 16.865-12.525 25.392-18.451l-12.976-18.679c-8.766 6.088-17.545 12.739-25.79 18.73l6.688 9.202zM438.272 726.84l5.833 9.761c68.924-41.169 155.727-48.514 237.847-54.416l-0.815-11.348-0.819-11.343c-81.147 5.832-173.554 13.177-247.879 57.581l5.833 9.765zM681.137 670.836h11.371c0.005-169.621 2.267-340.083-0.363-509.993l-22.747 0.352c2.63 169.689 0.368 339.601 0.363 509.641h11.376zM69.862 161.11l-11.37-0.282c-1.762 71.145-1.374 142.55-1.004 213.614l22.747-0.119c-0.371-71.126-0.755-142.186 0.997-212.931l-11.37-0.282zM68.863 374.383l-11.374 0.060c0.154 29.149 0.314 58.246 0.318 87.306l22.747-0.004c-0.005-29.129-0.165-58.288-0.318-87.422l-11.373 0.060zM69.181 461.747l-11.373 0.002c0.004 21.295-0.271 42.762-0.545 64.354l22.745 0.289c0.273-21.56 0.551-43.18 0.546-64.647l-11.374 0.002zM68.635 526.248h-11.373v0.182h22.747v-0.182h-11.374zM68.635 526.429l-11.372-0.144c-0.601 47.695-1.203 96.084 1.195 143.714l22.718-1.14c-2.356-46.797-1.771-94.469-1.168-142.285l-11.373-0.144zM69.817 669.431l-0.976 11.329c94.761 8.159 186.22 17.436 261.837 72.927l13.458-18.339c-81.521-59.82-179.463-69.171-273.344-77.251l-0.976 11.334zM337.408 744.518l11.373-0.033c-0.464-159.050 0.408-318.095 2.635-477.125l-22.745-0.318c-2.229 159.158-3.102 318.332-2.638 477.508l11.374-0.033zM340.044 267.201l8.257-7.821c-64.082-67.651-163.718-107.199-255.483-109.775l-0.639 22.738c86.491 2.428 180.156 39.917 239.608 102.68l8.257-7.822zM92.499 160.974l0.243-11.372c-7.756-0.166-15.518-0.112-23.25 0.14l0.741 22.735c7.343-0.239 14.695-0.29 22.023-0.133l0.243-11.371z">
  </path>
  <path
    d="M1040.78 140.231c91.108-1.583 244.55-4.264 295.089 15.091 38.591 14.786 71.419 43.877 88.232 81.909 16.566 37.494 17.743 87.101 2.723 125.273-16.044 40.758-45.48 57.986-83.544 74.409 2.937 1.071 5.93 2.107 8.909 3.136 8.155 2.817 16.37 5.668 24.045 9.455 35.151 17.659 62.017 48.361 74.822 85.546 15.467 45.605 9.523 96.694-11.413 139.408-15.611 26.899-37.497 47.718-64.591 62.864-23.836 13.326-47.411 18.655-74.314 22.225-40.899 5.437-278.156 9.011-307.954-1.136-4.017-1.364-8.024-2.895-9.868-6.861-4.389-9.514-4.99-24.101-5.45-35.319l-0.14-3.091c-2.858-63.777-1.918-128.41-1.001-192.773 0.41-28.63 0.791-57.213 0.866-85.638 0.070-27.389-0.279-54.97-0.638-82.591-0.694-53.852-1.368-107.908 1.094-161.182 0.535-11.547 1.517-24.425 5.679-35.273 3.184-8.283 7.247-11.141 15.048-14.818 11.432-0.079 25.898-0.35 42.408-0.636zM1268.554 486.414c-33.21-7.917-138.035-2.434-177.957-2.411l0.047 182.002c46.843 0.093 148.82 6.004 188.956-4.273 14.825-3.798 26.587-9.751 37.86-20.094 18.060-21.29 27.429-42.771 24.73-71.317-2.406-25.377-13.251-46.964-33.001-63.274-11.795-9.872-25.707-16.929-40.634-20.634zM1123.691 232.549c-12.642 0.407-23.994 0.758-33.14 0.773l0.093 162c10.636 0.030 23.589 0.365 37.725 0.727 46.732 1.196 106.338 2.732 137.458-5.227 14.494-3.71 26.498-9.573 38.088-19 15.211-18.423 23.501-39.463 21.546-63.682-1.713-21.294-11.874-42.131-28.863-55.318-31.991-24.817-115.861-22.113-172.907-20.272z">
  </path>
  <path
    d="M1980.714 502.579c-17.52-131.495-138.342-223.872-269.819-206.295-131.379 17.565-223.665 138.27-206.178 269.648 17.492 131.389 138.147 223.744 269.545 206.341 131.496-17.445 223.944-138.212 206.452-269.694zM1726.269 397.999c26.685-1.328 50.223-0.871 73.891 13.551 26.563 16.191 43.087 43.852 50.283 73.566 10.198 42.124 7.81 100.129-15.881 137.593-16.975 26.843-40.63 38.717-70.577 45.312-28.737 2.89-57.251 0.182-81.873-16.333-25.963-17.422-41.081-45.857-46.955-75.976-8.346-42.766-5.725-98.337 20.112-134.95 17.734-25.129 41.37-37.517 71-42.763z">
  </path>
  <path
    d="M2495.977 501.127c-18.153-131.461-139.622-223.176-271.034-204.649-130.89 18.455-222.152 139.332-204.069 270.273 18.088 130.909 138.715 222.538 269.694 204.819 131.505-17.79 223.562-138.989 205.41-270.443zM2239.66 398.027c25.954-2.134 51.065-1.328 74.403 11.747 27.709 15.521 44.632 42.767 52.527 72.852 11.329 43.227 9.095 98.979-14.583 137.947-16.766 27.615-40.671 40.467-71.242 47.337-28.616 3.71-56.827 0.521-81.441-15.649-26.27-17.268-41.514-45.382-47.905-75.567-9.007-42.654-6.093-97.597 18.79-134.671 16.877-25.161 40.378-38.004 69.45-43.996z">
  </path>
  <path
    d="M2591.725 120.815c1.797-0.168 3.593-0.298 5.39-0.362 17.836-0.626 57.553-4.081 69.655 12.247 5.162 6.956 5.911 21.49 6.549 30.065 2.709 36.227 0.526 74.12 0.526 110.502l0.042 214.231c25.344-30.119 54.505-57.698 81.231-86.673 26.387-28.618 51.749-61.529 80.98-87.020 6.963-6.071 12.241-9.288 21.248-11.744 18.674-5.084 86.328-8.851 100.566 1.283 3.64 2.587 6.735 7.6 6.461 12.179-1.275 20.388-135.983 153.209-159.46 176.453 43.199 62.785 86.761 125.296 130.709 187.555 10.938 15.881 42.035 49.953 38.032 69.632-0.866 4.278-4.254 8.029-8.029 10.1-20.201 11.124-97.792 3.798-122.019-4.096-17.31-17.403-31.414-42.561-45.335-62.781l-84.303-122.908-40.285 35.011c-0.158 32.233 9.486 127.064-11.236 148.675-9.281 9.691-21.406 10.44-34.029 10.557-19.288 0.205-56.595 3.412-70.698-10.375-3.617-37.125-2.411-74.701-2.434-111.96l-0.070-159.12 0.023-218.025c0-38.748-1.387-78.073 0.41-116.764 0.251-5.205 0.386-9.697 3.482-14.149 7.415-10.73 20.857-10.919 32.596-12.513z">
  </path>
  <path
    d="M3411.247 297.86c25.432-0.552 76.069-6.178 98.951 3.301 8.578 3.55 12.47 12.306 16.31 20.322 16.291 33.955 26.959 73.076 40.062 108.535 22.812 61.697 47.383 122.718 70.516 184.275 13.442-34.737 106.296-293.567 121.516-306.478 7.461-6.319 21.611-7.677 30.911-7.95 19.586-0.573 56.166-4.9 70.996 8.783 3.752 8.819 3.254 13.642 1.094 23.095-7.601 33.013-23.771 67.314-35.626 99.14l-76.176 204.747-51.503 139.576c-10.352 28.165-19.47 58.303-32.894 85.099-7.485 14.922-16.579 28.914-28.002 41.128-27.364 29.324-63.167 41.923-102.591 43.287-16.901 0.591-45.88 3.733-58.913-8.346-8.327-16.835-9.034-56.097-3.663-74.249 5.232-17.673 43.925-14.308 59.527-23.087 25.116-14.127 31.963-41.947 38.447-67.812-20.177-60.984-172.041-433.914-170.561-455.004 0.638-9.158 4.957-13.084 11.599-18.362z">
  </path>
  <path
    d="M3161.782 296.063c12.739-1.943 26.726-1.413 39.671-1.281 51.479 0.514 109.075 11.365 146.153 50.088 17.036 17.802 29.459 44.696 27.592 69.778-0.317 4.274-1.503 10.411-5.143 12.986-18.493 13.069-68.966 10.505-90.941 7.55-19.498-2.627-17.994-15.662-30.003-29.929-13.242-15.7-32.6-23.416-52.755-24.879-22.426-1.629-50.795 5.669-67.491 21.414-7.368 6.954-15.151 24.87-13.945 34.897 5.19 43.727 128.386 49.35 163.849 58.277 30.073 7.573 61.035 18.832 85.053 39.075 22.793 19.2 33.098 45.359 35.421 74.612 2.844 36.054-7.666 70.586-31.6 97.88-41.579 47.43-102.158 61.375-162.439 65.787-46.336 1.569-96.195-4.776-137.868-26.182-30.231-15.537-57.53-39.806-67.607-73.29-4.138-13.67-6.893-29.687 0.386-42.654 21.066-16.514 78.615-10.054 104.183-9.118 8.62 13.121 13.898 28.523 25.684 39.396 19.856 18.311 49.157 23.841 75.385 22.542 21.448-1.066 44.288-7.163 58.666-24.204 7.936-9.393 12.53-21.448 11.348-33.848-4.752-49.59-126.906-49.408-164.71-58.14-27.299-6.279-55.142-17.357-77.251-34.872-23.296-18.493-38.172-43.366-40.993-73.175-3.137-36.371 8.076-72.525 31.255-100.728 35.007-42.429 85.35-56.83 138.1-61.984z">
  </path>
</svg>