<?xml version="1.0" encoding="UTF-8"?>
<svg xmlns="http://www.w3.org/2000/svg" xmlns:xlink="http://www.w3.org/1999/xlink" width="0" height="0">
  <symbol id="check" width="24" height="24" viewBox="0 0 24 24" fill="none">
    <path
      d="M9.99997 15.586L6.70697 12.293L5.29297 13.707L9.99997 18.414L19.707 8.70697L18.293 7.29297L9.99997 15.586Z" />
  </symbol>

  <symbol id="chevron-down" width="24" height="24" viewBox="0 0 24 24" fill="none">
    <path d="M16.293 8.29297L12 12.586L7.70697 8.29297L6.29297 9.70697L12 15.414L17.707 9.70697L16.293 8.29297Z" />
  </symbol>

  <symbol id="chevron-left" width="24" height="24" viewBox="0 0 24 24" fill="none">
    <path d="M13.2929 6.29297L7.58594 12L13.2929 17.707L14.7069 16.293L10.4139 12L14.7069 7.70697L13.2929 6.29297Z" />
  </symbol>

  <symbol id="chevron-right" width="24" height="24" viewBox="0 0 24 24" fill="none">
    <path
      d="M9.70697 16.9496L15.414 11.2426L9.70697 5.53564L8.29297 6.94964L12.586 11.2426L8.29297 15.5356L9.70697 16.9496Z" />
  </symbol>

  <symbol id="chevron-up" width="24" height="24" viewBox="0 0 24 24" fill="none">
    <path d="M6.29297 14.2929L7.70697 15.7069L12 11.4139L16.293 15.7069L17.707 14.2929L12 8.58594L6.29297 14.2929Z" />
  </symbol>

  <symbol id="down-arrow-alt" width="24" height="24" viewBox="0 0 24 24" fill="none">
    <path
      d="M18.707 12.707L17.293 11.293L13 15.586V6H11V15.586L6.70697 11.293L5.29297 12.707L12 19.414L18.707 12.707Z" />
  </symbol>

  <symbol id="envelope" width="24" height="24" viewBox="0 0 24 24" fill="none">
    <path
      d="M20 4H4C2.897 4 2 4.897 2 6V18C2 19.103 2.897 20 4 20H20C21.103 20 22 19.103 22 18V6C22 4.897 21.103 4 20 4ZM20 6V6.511L12 12.734L4 6.512V6H20ZM4 18V9.044L11.386 14.789C11.5611 14.9265 11.7773 15.0013 12 15.0013C12.2227 15.0013 12.4389 14.9265 12.614 14.789L20 9.044L20.002 18H4Z" />
  </symbol>

  <symbol id="left-arrow-alt" width="24" height="24" viewBox="0 0 24 24" fill="none">
    <path
      d="M12.7069 17.293L8.41394 13H17.9999V11H8.41394L12.7069 6.70697L11.2929 5.29297L4.58594 12L11.2929 18.707L12.7069 17.293Z" />
  </symbol>

  <symbol id="map" width="24" height="24" viewBox="0 0 24 24" fill="none">
    <path
      d="M12.0001 14C14.2061 14 16.0001 12.206 16.0001 10C16.0001 7.794 14.2061 6 12.0001 6C9.79406 6 8.00006 7.794 8.00006 10C8.00006 12.206 9.79406 14 12.0001 14ZM12.0001 8C13.1031 8 14.0001 8.897 14.0001 10C14.0001 11.103 13.1031 12 12.0001 12C10.8971 12 10.0001 11.103 10.0001 10C10.0001 8.897 10.8971 8 12.0001 8Z" />
    <path
      d="M11.4201 21.814C11.5893 21.9349 11.7921 21.9998 12.0001 21.9998C12.2081 21.9998 12.4108 21.9349 12.5801 21.814C12.8841 21.599 20.0291 16.44 20.0001 10C20.0001 5.589 16.4111 2 12.0001 2C7.58909 2 4.00009 5.589 4.00009 9.995C3.97109 16.44 11.1161 21.599 11.4201 21.814ZM12.0001 4C15.3091 4 18.0001 6.691 18.0001 10.005C18.0211 14.443 13.6121 18.428 12.0001 19.735C10.3891 18.427 5.97909 14.441 6.00009 10C6.00009 6.691 8.69109 4 12.0001 4Z" />
  </symbol>

  <symbol id="menu-alt-right" width="24" height="24" viewBox="0 0 24 24" fill="none">
    <path d="M4 6H20V8H4V6ZM8 11H20V13H8V11ZM13 16H20V18H13V16Z" />
  </symbol>

  <symbol id="minus" width="24" height="24" viewBox="0 0 24 24" fill="none">
    <path d="M5 11H19V13H5V11Z" />
  </symbol>

  <symbol id="phone" width="24" height="24" viewBox="0 0 24 24" fill="none">
    <path
      d="M17.7073 12.293C17.6145 12.2 17.5043 12.1263 17.383 12.076C17.2617 12.0257 17.1317 11.9998 17.0003 11.9998C16.869 11.9998 16.739 12.0257 16.6176 12.076C16.4963 12.1263 16.3861 12.2 16.2933 12.293L14.6993 13.887C13.9603 13.667 12.5813 13.167 11.7073 12.293C10.8333 11.419 10.3333 10.04 10.1133 9.30096L11.7073 7.70696C11.8003 7.61417 11.874 7.50397 11.9243 7.38265C11.9746 7.26134 12.0005 7.13129 12.0005 6.99996C12.0005 6.86862 11.9746 6.73858 11.9243 6.61726C11.874 6.49595 11.8003 6.38575 11.7073 6.29296L7.70733 2.29296C7.61455 2.20001 7.50434 2.12627 7.38303 2.07596C7.26171 2.02565 7.13167 1.99976 7.00033 1.99976C6.869 1.99976 6.73896 2.02565 6.61764 2.07596C6.49633 2.12627 6.38612 2.20001 6.29333 2.29296L3.58133 5.00496C3.20133 5.38496 2.98733 5.90696 2.99533 6.43996C3.01833 7.86396 3.39533 12.81 7.29333 16.708C11.1913 20.606 16.1373 20.982 17.5623 21.006H17.5903C18.1183 21.006 18.6173 20.798 18.9953 20.42L21.7073 17.708C21.8003 17.6152 21.874 17.505 21.9243 17.3837C21.9746 17.2623 22.0005 17.1323 22.0005 17.001C22.0005 16.8696 21.9746 16.7396 21.9243 16.6183C21.874 16.4969 21.8003 16.3867 21.7073 16.294L17.7073 12.293ZM17.5803 19.005C16.3323 18.984 12.0623 18.649 8.70733 15.293C5.34133 11.927 5.01533 7.64196 4.99533 6.41896L7.00033 4.41396L9.58633 6.99996L8.29333 8.29296C8.1758 8.41041 8.08938 8.55529 8.04189 8.71453C7.9944 8.87376 7.98733 9.04231 8.02133 9.20496C8.04533 9.31996 8.63233 12.047 10.2923 13.707C11.9523 15.367 14.6793 15.954 14.7943 15.978C14.9569 16.0129 15.1256 16.0064 15.285 15.9591C15.4444 15.9117 15.5893 15.825 15.7063 15.707L17.0003 14.414L19.5863 17L17.5803 19.005Z" />
  </symbol>

  <symbol id="plus" width="24" height="24" viewBox="0 0 24 24" fill="none">
    <path d="M19 11H13V5H11V11H5V13H11V19H13V13H19V11Z" />
  </symbol>

  <symbol id="right-arrow-alt" width="24" height="24" viewBox="0 0 24 24" fill="none">
    <path
      d="M11.293 17.293L12.707 18.707L19.414 12L12.707 5.29297L11.293 6.70697L15.586 11H6V13H15.586L11.293 17.293Z" />
  </symbol>

  <symbol id="star" width="24" height="24" viewBox="0 0 24 24" fill="none">
    <path
      d="M6.51603 14.323L5.02603 20.775C4.97989 20.9704 4.99374 21.1751 5.06577 21.3625C5.1378 21.5499 5.26467 21.7112 5.4298 21.8253C5.59492 21.9395 5.79064 22.0012 5.99138 22.0024C6.19212 22.0036 6.38855 21.9442 6.55503 21.832L12 18.202L17.445 21.832C17.6154 21.9451 17.8162 22.0033 18.0207 21.9988C18.2251 21.9944 18.4232 21.9274 18.5884 21.8069C18.7536 21.6865 18.878 21.5183 18.9448 21.3251C19.0116 21.1318 19.0176 20.9228 18.962 20.726L17.133 14.326L21.669 10.244C21.8143 10.1132 21.9181 9.94266 21.9674 9.75351C22.0168 9.56436 22.0097 9.36488 21.9469 9.17974C21.8841 8.99461 21.7685 8.83193 21.6142 8.71183C21.46 8.59173 21.2739 8.51947 21.079 8.504L15.378 8.05L12.911 2.589C12.8324 2.41316 12.7045 2.26384 12.5428 2.15906C12.3812 2.05429 12.1927 1.99854 12 1.99854C11.8074 1.99854 11.6189 2.05429 11.4572 2.15906C11.2956 2.26384 11.1677 2.41316 11.089 2.589L8.62203 8.05L2.92103 8.503C2.72948 8.51818 2.54636 8.58821 2.39358 8.70473C2.2408 8.82125 2.12482 8.97932 2.05952 9.16003C1.99422 9.34074 1.98236 9.53644 2.02537 9.72371C2.06838 9.91098 2.16443 10.0819 2.30203 10.216L6.51603 14.323ZM9.36903 9.997C9.54752 9.98294 9.71895 9.92112 9.86533 9.81802C10.0117 9.71491 10.1277 9.57433 10.201 9.411L12 5.43L13.799 9.411C13.8724 9.57433 13.9883 9.71491 14.1347 9.81802C14.2811 9.92112 14.4525 9.98294 14.631 9.997L18.603 10.312L15.332 13.256C15.048 13.512 14.935 13.906 15.039 14.274L16.292 18.659L12.556 16.168C12.392 16.0579 12.199 15.9992 12.0015 15.9992C11.804 15.9992 11.611 16.0579 11.447 16.168L7.54303 18.771L8.59303 14.225C8.63153 14.0578 8.62636 13.8835 8.57802 13.7189C8.52969 13.5543 8.43981 13.4048 8.31703 13.285L5.27903 10.323L9.36903 9.997Z" />
  </symbol>

  <symbol id="up-arrow-alt" width="24" height="24" viewBox="0 0 24 24" fill="none">
    <path
      d="M11 8.41394V17.9999H13V8.41394L17.293 12.7069L18.707 11.2929L12 4.58594L5.29297 11.2929L6.70697 12.7069L11 8.41394Z" />
  </symbol>

  <symbol id="x" width="24" height="24" viewBox="0 0 24 24" fill="none">
    <path
      d="M16.192 6.34424L11.949 10.5862L7.70697 6.34424L6.29297 7.75824L10.535 12.0002L6.29297 16.2422L7.70697 17.6562L11.949 13.4142L16.192 17.6562L17.606 16.2422L13.364 12.0002L17.606 7.75824L16.192 6.34424Z" />
  </symbol>

</svg>